<svg id="レイヤー_1" data-name="レイヤー 1" xmlns="http://www.w3.org/2000/svg" viewBox="0 0 841.89 595.28"><defs><style>.cls-1{fill:#cdbb9d;}.cls-2{fill:#dbccb4;}.cls-3{fill:#fff68c;}.cls-4{fill:#baa485;}.cls-5{fill:#f7cbd8;}.cls-6{fill:#f2a9ba;}.cls-7{fill:#f7d7c4;}.cls-8{fill:#ef96bd;}.cls-9{fill:#f3b2c1;}.cls-10{fill:#fff;}.cls-11{fill:#f6c8dd;}.cls-12{fill:#f1a3bd;}.cls-13{fill:#fbf9d6;}.cls-14{fill:#706873;}.cls-15{fill:#fff695;}.cls-16{fill:#7db9e5;}.cls-17{fill:#b5e0f8;}.cls-18{fill:#8daad8;}.cls-19{fill:#f7c07e;}.cls-20{fill:#fcdc8e;}.cls-21{fill:#f8c571;}.cls-22{fill:#fff198;}.cls-23{fill:#c5e5e8;}.cls-24{fill:#cde7ee;}.cls-25{fill:#af9679;}</style></defs><rect class="cls-1" x="742.54" y="150" width="43.6" height="362.15"/><rect class="cls-2" x="575.12" y="175.98" width="11.29" height="332.28"/><rect class="cls-2" x="762.92" y="175.98" width="11.28" height="332.28"/><path class="cls-3" d="M515,193.06A19.34,19.34,0,1,0,534.3,212.4,19.35,19.35,0,0,0,515,193.06Z"/><path class="cls-3" d="M553.65,193.06A19.34,19.34,0,1,0,573,212.4,19.35,19.35,0,0,0,553.65,193.06Z"/><path class="cls-3" d="M592.33,193.06a19.34,19.34,0,1,0,19.33,19.34A19.35,19.35,0,0,0,592.33,193.06Z"/><path class="cls-3" d="M631,193.06a19.34,19.34,0,1,0,19.34,19.34A19.35,19.35,0,0,0,631,193.06Z"/><path class="cls-3" d="M669.69,193.06A19.34,19.34,0,1,0,689,212.4,19.34,19.34,0,0,0,669.69,193.06Z"/><path class="cls-3" d="M708.37,193.06a19.34,19.34,0,1,0,19.34,19.34A19.35,19.35,0,0,0,708.37,193.06Z"/><path class="cls-3" d="M747.05,193.06a19.34,19.34,0,1,0,19.34,19.34A19.35,19.35,0,0,0,747.05,193.06Z"/><path class="cls-3" d="M785.72,193.06a19.34,19.34,0,1,0,19.35,19.34A19.35,19.35,0,0,0,785.72,193.06Z"/><path class="cls-3" d="M824.41,193.06a19.34,19.34,0,1,0,19.34,19.34A19.35,19.35,0,0,0,824.41,193.06Z"/><rect class="cls-4" x="495.62" y="184.67" width="542.26" height="27.92"/><path class="cls-1" d="M766.45,25.75c0,58.76-271.13,158.92-271.13,158.92h542.25S766.45,84.51,766.45,25.75Z"/><rect class="cls-5" x="764.33" y="-13.98" width="4.23" height="49.11"/><polygon class="cls-3" points="768.56 -13.98 812.74 4.44 768.56 22.86 768.56 -13.98"/><rect class="cls-6" x="525.85" y="496.49" width="481.79" height="36.6"/><rect class="cls-5" x="495.32" y="514.8" width="542.56" height="36.59"/><path class="cls-7" d="M489,274.53s3.2,13.12,15.9,8.6"/><path class="cls-8" d="M496.75,408.84a47.82,47.82,0,0,0,5.36,5.51s8.66,1.09,7.56-9.46a23.92,23.92,0,0,0-1.22-5.58A13.71,13.71,0,0,1,496.75,408.84Z"/><path class="cls-9" d="M522.39,367c-3.22-5.37-6-5.39-6-5.39S500,370.61,491.41,373.2s-10,10-3.52,22.39a70.17,70.17,0,0,0,8.86,13.25,13.71,13.71,0,0,0,11.7-9.53,25.53,25.53,0,0,0-6.94-10.82l14.47-11S525.6,372.28,522.39,367Z"/><path class="cls-9" d="M638.55,392.23c.74-5.89-2.19-13-4.12-14.92s-21.54,3.47-21.54,3.47L610.5,383a30,30,0,0,0,15.57,9.33c-.43,1.65-6.13,10.53-9.24,19.23,2.41,1.69,6.74,3.27,14,1.7,0-.65,0-1.35,0-2.11C632,406.86,637.8,398.15,638.55,392.23Z"/><path class="cls-8" d="M616.83,411.56A33.34,33.34,0,0,0,615,419.1c.74,3.89,3.19,3.68,7.58,3.7,4.13.05,7.81.78,8.34-9.54C623.57,414.83,619.24,413.25,616.83,411.56Z"/><path class="cls-8" d="M638.5,340s-1.6-14.85,11.65-19.16,24.48-1.1,30.7,31.28c.81,4.2,3.65,10.11,6.56,13.06,2.44,2.46,6.57,2.66,8.73,5.35,3.26,4-.15,7.09-4.26,6.44,2.16.35,1.82,5.56.43,6.59-2.44,1.8-6.66-1.06-8.13-3,1.62,2.16-1.63,5.55-3.15,6.3a9.71,9.71,0,0,1-8.13-.27c-6.85-3.47-8.5-14.11-8.59-21.3-.23-15.81-1.39-28.37-10-27.78s-13.4,16.48-13.21,17.46S638.5,340,638.5,340Z"/><path class="cls-8" d="M635.39,410.92a26.12,26.12,0,0,0-.66,4.28c-.26,4.25-.71,8.85,4.2,8.55,3-.19,10.44-1.77,11.87-5.07,1.27-2.95-.65-6.19-1.32-9.22C642.38,412.26,637.9,411.81,635.39,410.92Z"/><path class="cls-8" d="M518.82,418.35c2.89.38,8-.76,8.43-6.6a14.51,14.51,0,0,0-3.1-5.26c-3.19,4.1-9.41,6-12.39,6.72C514.38,416.13,516.88,418.11,518.82,418.35Z"/><path class="cls-10" d="M473.18,307.22c-.83,1.16-1.65,2.31-2.37,3.49,5.86.82,15.8,5,22.67,22.44,1.4-.37,2.79-.84,4.15-1.35C490.44,313.8,480.08,308.59,473.18,307.22Z"/><path class="cls-11" d="M508.89,264.29a30.14,30.14,0,0,0-23.34,15.06c-1.11,4-3,15.52-9.2,23.67-1.05,1.38-2.14,2.78-3.17,4.2,6.9,1.37,17.26,6.58,24.45,24.58a43.17,43.17,0,0,0,10.92-6,.71.71,0,0,1,.59-.08C534.81,293,517.18,271.68,508.89,264.29Z"/><path class="cls-11" d="M470.81,310.71c-3.8,6.09-5.86,12.53-1,18.73,4.48,5.66,14.12,6.33,23.63,3.71C486.61,315.67,476.67,311.53,470.81,310.71Z"/><path class="cls-11" d="M562.57,317c-7.88-10.36-13.58-24-20.15-33.63a89.45,89.45,0,0,0-12.74-15.21c-6.59-6.1,8.63-18.48-3.36-29.86-5.8-5.49-10.31,7.61-11.11,12.6a45.49,45.49,0,0,0-.09,12.87c7.65,8.4,23.22,31.89-3.18,64.52a35.73,35.73,0,0,1,2.24,3.16c2.53,4.68,1.09,9.88.33,14.86-.22,1.63-.48,3.27-.63,4.9C541.55,352.44,557.55,326.68,562.57,317Z"/><path class="cls-11" d="M656.79,381.32c-2.71-6.16-6.46-12.42-8.69-19s-2.44-14-6.68-19.66c-5.88-7.87-16.25-9.59-25.66-10.08.84,14.38-.27,40-21.49,37.53-19.65-2.25-23-32.05-23.58-44.56a42.93,42.93,0,0,1-6-5.87c-15.53,35-41.93,36.21-51.11,35.52a38.39,38.39,0,0,0,.59,8.21s-5,6.52-6.59,11.25c-1.08.92-12.77,3.53-12.61,9.24.13,4.27,9,20.81,16.76,29.34,3-.71,9.2-2.62,12.39-6.72a19.71,19.71,0,0,0-3.14-2.81c-5.07-3.57-8.59-8.86-9-14.17s15.32,1.63,29.7-13.05c-.12.11,11.47,6.16,12.09,6.4,20.37,8.21,41.46,4.74,62.38,2.29a64.47,64.47,0,0,1,10.82-.81c3.87.23,11.86,2.1,14.37,5.67s-.36,8.05-2,11.26a41.12,41.12,0,0,0-4,9.65c2.51.89,7,1.34,14.09-1.46a8.32,8.32,0,0,1-.21-1.36c-.28-4.35,3-6.48,5.06-9.86C657.86,392.54,659.66,387.82,656.79,381.32Z"/><path class="cls-10" d="M564.72,319.65c-.73-.87-1.47-1.76-2.15-2.67-5,9.7-21,35.46-48.69,34.21-.13,1.34-.24,2.67-.27,4C522.79,355.86,549.19,354.61,564.72,319.65Z"/><path class="cls-10" d="M515.12,263.75a3.19,3.19,0,0,0,0,.54,27.76,27.76,0,0,0-6.28,0c8.29,7.39,25.92,28.73.25,61.46a8.28,8.28,0,0,1,2.8,2.52C538.34,295.64,522.77,272.15,515.12,263.75Z"/><path class="cls-10" d="M523.2,307.7c-7.07,8.68-34.33,16.46-34.33,16.46l-.81-4.2s27.25-7.77,34.33-16.46Z"/><path class="cls-12" d="M518.16,260.89c-4.09-3.71-7.75-7.88-14.15-8.09-8.91-.26-16.44,6.44-20.78,13.86-3.39,5.77-5,14.91-.37,20.26,5.53,6.4,18.46,4.53,22.05-3.79a8.45,8.45,0,0,0,10.46-2.69s7.92,3.29,13-2.93,2.35-9.66-3.53-12.07A23.09,23.09,0,0,1,518.16,260.89Z"/><path class="cls-13" d="M487.75,274.48s1.35,11.51,15.9,8.58C503.65,283.06,492.53,281.51,487.75,274.48Z"/><path class="cls-13" d="M514.14,280.05s-10.76,1.05-12.73-7.62A17.56,17.56,0,0,0,514.14,280.05Z"/><path class="cls-13" d="M684.18,380.48S672.7,382.91,669,353.7C669,353.7,673.43,376.28,684.18,380.48Z"/><path class="cls-13" d="M691.88,376.92s-11.14,3.84-17-18.47c0,0,6.48,17.44,16.51,17.58"/><path class="cls-14" d="M502.12,303.25c-.54-2.84-2.71-4.74-4.8-4.27a3.37,3.37,0,0,0-2,1.5l-2.9-2.14s-.23,1.88,2.29,3.37a6.5,6.5,0,0,0-.24,3.25c.55,2.83,2.68,4.73,4.79,4.27S502.67,306.09,502.12,303.25Z"/><path class="cls-10" d="M526.23,308a6.12,6.12,0,0,1-4.39,7.24,5.67,5.67,0,0,1-6.7-4.76,6.12,6.12,0,0,1,4.4-7.22A5.7,5.7,0,0,1,526.23,308Z"/><path class="cls-15" d="M523.69,308.6a3.31,3.31,0,0,1-2.38,3.91,3.07,3.07,0,0,1-3.62-2.56,3.3,3.3,0,0,1,2.38-3.91A3.08,3.08,0,0,1,523.69,308.6Z"/><path class="cls-10" d="M618.87,332.17s-2.24,0-5.69-.05c1.63,14.55,1.85,37-17.84,37.05-20.34,0-21.73-32.09-21.67-41.69l-5.44-1.85s-4.27-1.05-4.83,5.81,6.09,5.72,6.09,5.72-4.85.75-3.54,7.55,5.42,3.84,5.42,3.84a7.4,7.4,0,0,0-1.19,10.06c2.17,3.22,6.44,2.62,6.44,2.62s-3,5.69,1.74,9,7.09-.58,7.09-.58-2.19,4.89,3.77,6.58,6.8-3.54,6.8-3.54,2.69,5.79,8.68,2.77,3.62-7.21,3.62-7.21,3.92,4.17,8.08-3.51a8.46,8.46,0,0,0-1-8.22s6.07.66,6.74-5.54-4.32-7.83-4.32-7.83a5,5,0,0,0,4.89-5.45C622.66,332.34,618.87,332.17,618.87,332.17Z"/><path class="cls-15" d="M595.34,369.17c19.69,0,19.47-22.5,17.84-37.05-4.83-.06-12-.15-18.73-.2-11.59-.12-18.28-4-18.28-4l-1.93-.25-.57-.18C573.61,337.08,575,369.21,595.34,369.17Z"/><path class="cls-12" d="M535.78,257.22s-6.6-1.84-8.2,6.1-.05,24.93,14.38,30.52c.08,1.81-.34,15.87,15,19.12.39,2,1.55,12.42,15.2,9.67,1.69-1.59,9.39-11.82-11.2-27.29-.39-3.55,3.8-14.21-12.63-19.94C547.64,273.11,549.53,260.85,535.78,257.22Z"/><path class="cls-16" d="M879.89,368.38c-3.22-5.37-6-5.38-6-5.38s-16.4,9.05-25,11.63-10,10-3.51,22.39a69.22,69.22,0,0,0,8.86,13.25,13.71,13.71,0,0,0,11.7-9.53A25.45,25.45,0,0,0,859,389.93l14.47-11S883.1,373.72,879.89,368.38Z"/><path class="cls-10" d="M830.67,308.65c-.82,1.17-1.63,2.31-2.36,3.49,5.85.82,15.8,5,22.66,22.44,1.4-.37,2.8-.84,4.16-1.35C847.94,315.23,837.58,310,830.67,308.65Z"/><path class="cls-17" d="M866.4,265.72a30.17,30.17,0,0,0-23.35,15.06c-1.12,4-3,15.53-9.21,23.68-1.05,1.37-2.13,2.77-3.17,4.19,6.91,1.37,17.27,6.58,24.46,24.58a43.59,43.59,0,0,0,10.91-6,.7.7,0,0,1,.6-.07C892.31,294.45,874.68,273.11,866.4,265.72Z"/><path class="cls-17" d="M828.31,312.14c-3.81,6.1-5.87,12.54-1,18.73,4.49,5.66,14.13,6.33,23.63,3.71C844.11,317.1,834.16,313,828.31,312.14Z"/><path class="cls-18" d="M875.66,262.32c-4.1-3.71-7.76-7.88-14.16-8.08-8.9-.27-16.44,6.44-20.78,13.85-3.38,5.76-5,14.91-.37,20.26,5.54,6.4,18.46,4.54,22-3.8a8.43,8.43,0,0,0,10.46-2.69s7.93,3.3,13.06-2.92,2.34-9.66-3.53-12.07A23.09,23.09,0,0,1,875.66,262.32Z"/><path class="cls-7" d="M673.54,326.41s3.21,13.12,15.91,8.58"/><path class="cls-19" d="M681.3,460.71a47.35,47.35,0,0,0,5.35,5.51s8.66,1.1,7.57-9.46a24.89,24.89,0,0,0-1.22-5.57A13.7,13.7,0,0,1,681.3,460.71Z"/><path class="cls-20" d="M706.93,418.82c-3.22-5.37-6-5.38-6-5.38s-16.41,9.05-24.95,11.64-10,10-3.52,22.38a68.88,68.88,0,0,0,8.87,13.25,13.7,13.7,0,0,0,11.7-9.52,25.55,25.55,0,0,0-6.94-10.82l14.46-11S710.15,424.16,706.93,418.82Z"/><path class="cls-20" d="M823.08,444.1c.75-5.89-2.18-13-4.11-14.92s-21.54,3.47-21.54,3.47L795,434.87a29.92,29.92,0,0,0,15.56,9.33c-.42,1.65-6.12,10.53-9.24,19.23,2.42,1.7,6.75,3.27,14.06,1.7,0-.65,0-1.34,0-2.11C816.52,458.73,822.34,450,823.08,444.1Z"/><path class="cls-19" d="M801.36,463.43A34.47,34.47,0,0,0,799.5,471c.74,3.89,3.19,3.67,7.58,3.69,4.13.06,7.81.78,8.34-9.54C808.11,466.7,803.78,465.13,801.36,463.43Z"/><path class="cls-21" d="M823,391.81s-1.6-14.83,11.65-19.15,24.48-1.1,30.69,31.28c.81,4.2,3.66,10.11,6.57,13.06,2.44,2.47,6.56,2.66,8.73,5.35,3.26,4-.15,7.09-4.25,6.45,2.15.34,1.81,5.55.42,6.59-2.44,1.79-6.66-1.07-8.13-3,1.62,2.17-1.64,5.56-3.15,6.3a9.75,9.75,0,0,1-8.13-.27c-6.84-3.47-8.5-14.1-8.59-21.3-.23-15.81-1.4-28.37-10-27.78s-13.41,16.5-13.23,17.45S823,391.81,823,391.81Z"/><path class="cls-19" d="M819.93,462.8a26.87,26.87,0,0,0-.66,4.28c-.25,4.24-.72,8.85,4.19,8.54,3-.2,10.45-1.76,11.88-5.07,1.27-3-.65-6.19-1.33-9.22C826.93,464.15,822.44,463.68,819.93,462.8Z"/><path class="cls-19" d="M703.36,470.22c2.89.38,8-.76,8.43-6.59a14.59,14.59,0,0,0-3.1-5.27c-3.19,4.11-9.42,6-12.39,6.72C698.92,468,701.41,470,703.36,470.22Z"/><path class="cls-10" d="M657.72,359.09c-.83,1.17-1.64,2.31-2.37,3.49,5.85.82,15.8,5,22.67,22.44,1.4-.37,2.79-.84,4.15-1.34C675,365.67,664.62,360.47,657.72,359.09Z"/><path class="cls-22" d="M693.44,316.16a30.16,30.16,0,0,0-23.35,15.07c-1.11,4-3,15.52-9.2,23.67-1.06,1.37-2.14,2.77-3.17,4.19,6.9,1.38,17.26,6.58,24.45,24.59a43.86,43.86,0,0,0,10.92-6,.71.71,0,0,1,.59-.08C719.35,344.9,701.72,323.55,693.44,316.16Z"/><path class="cls-22" d="M655.35,362.58c-3.81,6.1-5.86,12.54-1,18.73,4.49,5.66,14.12,6.34,23.63,3.71C671.15,367.54,661.2,363.4,655.35,362.58Z"/><path class="cls-22" d="M747.11,368.86c-7.88-10.36-13.59-24-20.15-33.63A89.13,89.13,0,0,0,714.22,320c-6.6-6.11,8.63-18.49-3.36-29.87-5.8-5.49-10.31,7.62-11.12,12.6a46.62,46.62,0,0,0-.09,12.87c7.66,8.4,23.23,31.89-3.17,64.53a28.85,28.85,0,0,1,2.23,3.16c2.55,4.67,1.1,9.88.34,14.85-.22,1.63-.48,3.27-.63,4.9C726.09,404.31,742.09,378.55,747.11,368.86Z"/><path class="cls-22" d="M841.33,433.19c-2.71-6.17-6.47-12.41-8.69-19s-2.44-14-6.68-19.66c-5.88-7.87-16.26-9.58-25.66-10.08.84,14.39-.27,40-21.48,37.53-19.66-2.24-23-32.05-23.6-44.56a45.19,45.19,0,0,1-6-5.87c-15.53,35-41.93,36.22-51.11,35.53a38.49,38.49,0,0,0,.59,8.21s-5,6.51-6.6,11.23c-1.07.93-12.75,3.54-12.6,9.26.12,4.26,9,20.8,16.76,29.33,3-.71,9.2-2.61,12.39-6.72a19.43,19.43,0,0,0-3.15-2.81c-5-3.57-8.58-8.86-9-14.16s15.33,1.62,29.71-13.05c-.12.1,11.47,6.15,12.08,6.39,20.38,8.22,41.47,4.74,62.4,2.29a65.33,65.33,0,0,1,10.81-.8c3.87.23,11.86,2.09,14.37,5.66s-.35,8.05-2,11.26a41.58,41.58,0,0,0-4,9.66c2.51.88,7,1.35,14.08-1.47a8.16,8.16,0,0,1-.2-1.35c-.28-4.36,3-6.49,5.06-9.86C842.41,444.41,844.2,439.7,841.33,433.19Z"/><path class="cls-10" d="M749.26,371.52c-.74-.87-1.46-1.76-2.15-2.66-5,9.69-21,35.45-48.69,34.2-.13,1.34-.23,2.67-.27,4C707.33,407.74,733.73,406.48,749.26,371.52Z"/><path class="cls-10" d="M699.65,315.62a3.19,3.19,0,0,0,.07.54,27.8,27.8,0,0,0-6.28,0c8.28,7.39,25.91,28.74.24,61.46a8.43,8.43,0,0,1,2.8,2.53C722.88,347.51,707.31,324,699.65,315.62Z"/><path class="cls-10" d="M707.74,359.58c-7.07,8.67-34.33,16.45-34.33,16.45l-.81-4.2s27.26-7.77,34.33-16.45Z"/><path class="cls-21" d="M702.7,312.76c-4.1-3.71-7.75-7.87-14.16-8.09-8.9-.27-16.43,6.45-20.77,13.86-3.39,5.77-5,14.91-.38,20.26,5.54,6.4,18.47,4.53,22.06-3.8a8.42,8.42,0,0,0,10.46-2.68s7.92,3.28,13.06-2.93,2.34-9.65-3.54-12.06A23.32,23.32,0,0,1,702.7,312.76Z"/><path class="cls-13" d="M672.29,326.35s1.35,11.51,15.9,8.58C688.19,334.93,677.07,333.38,672.29,326.35Z"/><path class="cls-13" d="M698.68,331.91S687.93,333,686,324.3A17.53,17.53,0,0,0,698.68,331.91Z"/><path class="cls-14" d="M686.67,355.12c-.55-2.83-2.72-4.74-4.81-4.27a3.35,3.35,0,0,0-2,1.51l-2.9-2.14s-.24,1.88,2.29,3.37a6.57,6.57,0,0,0-.24,3.24c.54,2.84,2.68,4.73,4.78,4.27S687.2,358,686.67,355.12Z"/><path class="cls-10" d="M710.77,359.91a6.12,6.12,0,0,1-4.38,7.23,5.67,5.67,0,0,1-6.7-4.75,6.1,6.1,0,0,1,4.38-7.22A5.69,5.69,0,0,1,710.77,359.91Z"/><path class="cls-23" d="M708.22,360.47a3.31,3.31,0,0,1-2.37,3.92,3.06,3.06,0,0,1-3.61-2.57,3.28,3.28,0,0,1,2.36-3.9A3.06,3.06,0,0,1,708.22,360.47Z"/><path class="cls-10" d="M803.4,384.05l-5.68-.06c1.62,14.56,1.85,37-17.84,37.06-20.34,0-21.73-32.1-21.66-41.7l-5.46-1.85s-4.26-1.05-4.82,5.81S754,389,754,389s-4.84.74-3.54,7.55,5.42,3.84,5.42,3.84a7.4,7.4,0,0,0-1.19,10.06c2.18,3.21,6.45,2.61,6.45,2.61s-3,5.7,1.74,9,7.08-.56,7.08-.56-2.2,4.88,3.76,6.58,6.81-3.55,6.81-3.55,2.69,5.79,8.68,2.77,3.62-7.2,3.62-7.2,3.93,4.17,8.08-3.53a8.44,8.44,0,0,0-1-8.2s6,.66,6.73-5.55-4.32-7.83-4.32-7.83a5,5,0,0,0,4.89-5.46C807.2,384.23,803.4,384.05,803.4,384.05Z"/><path class="cls-23" d="M779.88,421.05c19.69-.05,19.46-22.5,17.84-37.06L779,383.78c-11.61-.09-18.29-4-18.29-4l-1.93-.24-.56-.19C758.15,389,759.54,421.08,779.88,421.05Z"/><path class="cls-21" d="M720.32,309.1s-6.61-1.84-8.2,6.1,0,24.92,14.38,30.51c.07,1.82-.34,15.88,15,19.13.39,2,1.55,12.41,15.2,9.66,1.7-1.59,9.38-11.82-11.2-27.29-.39-3.54,3.8-14.21-12.63-19.94C732.17,325,734.07,312.72,720.32,309.1Z"/><path class="cls-24" d="M764.33,35.14S707.79,153.61,593.76,184.67H699.57S751.32,108.82,764.33,35.14Z"/><path class="cls-24" d="M768.56,35.32S825.1,153.79,939.13,184.85H833.33S781.57,109,768.56,35.32Z"/><path class="cls-25" d="M82.25,336H81c-4.21,0-7.78-.39-11.21-.65v2.72c.06,11.48-6,19.26-15.43,19.26-8.56,0-15.49-6.42-15.49-16.86,0-11.21,6.35-15.81,11.15-15.81,5.7,0,8.29,4.28,8.29,10.11,0,5.25-3.43,9.59-5.25,10.76a2.09,2.09,0,0,1-1,.39.64.64,0,0,1-.58-.65,1.59,1.59,0,0,1,.32-.78c.71-1.23,2.4-3.76,2.4-9.4,0-4.4-1.3-8.16-4.08-8.16-3.37,0-6.62,3.76-6.62,13.41,0,8.88,4.74,14.72,11.09,14.72C62,355,64.75,348,64.75,336.89v-1.75h-.2c-1.36,0-2.66.91-3,.91s-.91-.85-.91-1.37c0-.77,2-1.29,3.63-1.29h.46c.12-7,.58-13.55,2.39-18.86,2.79-8.17,8.3-13.42,17.11-13.42,1.37,0,2.79-.91,3.25-.91s.58.19.58.65-.39,1.36-.39,2.14a154.56,154.56,0,0,0-1.23,20.68c0,2.26,0,5.51.19,8.88,2.14-1.17,2.92-2.53,3.24-2.53a3,3,0,0,1,2,1.88c0,.58-1.3,2.4-5,3.43.52,6.29,1.68,12.25,4.15,12.25,3.82,0,6.8-8.29,6.8-8.29s.26-.72.85-.72a.7.7,0,0,1,.77.72,4,4,0,0,1-.19.9s-4,11.54-9.66,11.54C84.51,351.73,82.63,346.74,82.25,336Zm-.13-2.14v-3.63c0-17.95,1.62-26,1.62-26.7,0-.39-.2-.46-.65-.46-5.71,0-9.72,5.19-11.67,12.77-1.36,5.12-1.68,11.28-1.68,17.83,2.78.19,6.15.32,10,.32A14.14,14.14,0,0,0,82.12,333.84Z"/><path class="cls-25" d="M117.18,351.15c.2,2.07.33,4.28.33,6.8,0,8.69-4.28,13.88-9.21,13.88a6.32,6.32,0,0,1-6.54-6.1c0-4.66,5.77-8.75,11.47-13.67-.39-4.41-.91-8.3-.91-8.3-1.42,3.56-4.28,7.39-7.26,7.39-3.56,0-7.65-3-7.65-12.51,0-11.41,2.92-16,5.9-16,.52,0,.85.26.85.78a64.61,64.61,0,0,0-1.82,14.77c0,7.72,1.49,10.18,3.5,10.18,2.27,0,5.9-5.83,5.9-9.33,0-11.41,2.2-14.26,5.18-14.26.52,0,.85.26.85.77a44.54,44.54,0,0,0-1.62,13.16,83.74,83.74,0,0,0,.77,10.11,25.7,25.7,0,0,0,6.62-9.52s.26-.72.84-.72a.7.7,0,0,1,.78.72,3.83,3.83,0,0,1-.2.9C123.54,344.54,120.49,348.1,117.18,351.15Zm-9.39,18.15c3.3,0,5.83-3.76,5.83-10.11,0-1.5-.07-3.12-.2-4.74-4.79,4.09-9.14,7.46-9.14,11.09C104.28,368.07,105.65,369.3,107.79,369.3Z"/><path class="cls-25" d="M136.5,344.73c-.07.32-1.56,6.48-5.9,6.48-3.5,0-7.39-3.63-7.39-10.43,0-12,6.81-17.63,12.51-17.63,3.24,0,5.77,2.14,5.77,5.25,0,1-1.75,1.94-2.53,1.94a.44.44,0,0,1-.45-.45c0-.46.13-.78.13-1.62a2.68,2.68,0,0,0-3-2.92c-3.37,0-7.65,4.86-7.65,15.43,0,4.86,1.55,7.78,3.56,7.78,2.4,0,3.89-5.9,4.54-9.79.52-3,.71-7.2,5.31-7.2a.54.54,0,0,1,.59.52,20.61,20.61,0,0,0-1.62,8.82c0,3.43.58,6,2.46,6,3.05,0,5.77-7.64,5.77-7.64s.26-.72.84-.72a.7.7,0,0,1,.78.72,4,4,0,0,1-.19.9s-3.44,10-7.91,10C137.86,350.18,136.63,345.18,136.5,344.73Z"/><path class="cls-25" d="M185.24,339.29s.26-.72.85-.72a.7.7,0,0,1,.77.72,4,4,0,0,1-.19.9s-3.76,11-9.53,11a5.3,5.3,0,0,1-5.25-5.38c0-6.94,3.37-10,3.37-14.91,0-1-.52-1.94-1.68-1.88-2,.07-4.93,3.31-6.29,7.45a41.37,41.37,0,0,0-1.49,12.64c0,.59-.26.91-.85.91-3.37,0-3-1.81-3-16.85,0-5.12,0-7.52-1.81-7.52-2.59,0-5.25,7.71-6.61,15.75a40.15,40.15,0,0,0-.65,7.2c0,1-1.3,1.42-2,1.42-1.1,0-2.65-4.86-2.65-12.12,0-9.4,1-12.83,4-12.83.52,0,.85.26.85.77,0,.85-.91,3.05-.91,13.62,1.3-7.52,3.5-16.79,9.14-16.79,3.56,0,4.93,3.3,4.93,8.1a21.32,21.32,0,0,1-.2,3.5c1-2.33,5-8.23,9.14-8.23,2.66,0,4,2,4,4.41,0,4.6-2.92,9.52-2.92,15.1a2.25,2.25,0,0,0,2.21,2.53C182.07,348,185.24,339.29,185.24,339.29Z"/><path class="cls-25" d="M184.27,339.22c0-10.3,5.64-15.17,10-15.17,3.17,0,6.48,2.34,6.48,8.24,0,4.4-3.18,7.84-6.94,7.84-1.88,0-3.3-1-3.3-1.49a.84.84,0,0,1,.71-.84c.39,0,.71.58,1.82.58,2.2,0,3.69-3.24,3.69-6.16,0-4.08-1-6-2.59-6-2.34,0-5.32,3.82-5.32,11.86,0,6.74,3.18,10.18,7.07,10.18,3,0,4.73-1.88,5.9-3.57.45-.65.64-1,1.1-1a.68.68,0,0,1,.71.71,2.71,2.71,0,0,1-.39,1.1,9.53,9.53,0,0,1-8.75,5.77C189.26,351.34,184.27,347.78,184.27,339.22Z"/><path class="cls-25" d="M235.09,346.16a2.13,2.13,0,0,1-1,.39.65.65,0,0,1-.59-.65,1.5,1.5,0,0,1,.33-.78,15.2,15.2,0,0,0,2.46-8.17c0-3.56-1.36-6.67-4.73-6.67-2.79,0-6.48,3.56-6.48,10.69,0,8.62,6,13.16,11.08,13.16,7.78,0,11.54-6.55,11.54-16.92,0-10-3.83-15.29-3.83-24.82a15.32,15.32,0,0,1,1.75-6.68s-1.94-1.36-6.35-1.36c-7.19,0-11.21,4-11.21,8.36s3.63,8.23,5.7,9.27c.52.26.65.52.65.71,0,.39-.32.65-.78.65-3.3,0-10.76-4.93-10.76-11.21s5.38-10.63,13.81-10.63a29.28,29.28,0,0,1,10.43,2.2S250.19,301,253,301c1.55,0,2.46.72,2.46,2,0,3.05-4.15,4-7.13,3.37a11.59,11.59,0,0,0-.91,4.8c0,9,5.84,15.36,5.84,26.38,0,10.37-6.42,18.54-16.79,18.54-6.81,0-15.95-4-15.95-15,0-8.23,6.23-12.64,11.22-12.64s8.62,3.44,8.62,8.3A11.16,11.16,0,0,1,235.09,346.16Z"/><path class="cls-25" d="M271,344.73c-.07.32-1.56,6.48-5.9,6.48-3.5,0-7.39-3.63-7.39-10.43,0-12,6.81-17.63,12.51-17.63,3.24,0,5.77,2.14,5.77,5.25,0,1-1.75,1.94-2.53,1.94a.44.44,0,0,1-.45-.45c0-.46.13-.78.13-1.62a2.68,2.68,0,0,0-3-2.92c-3.37,0-7.65,4.86-7.65,15.43,0,4.86,1.55,7.78,3.56,7.78,2.4,0,3.89-5.9,4.54-9.79.52-3,.71-7.2,5.31-7.2a.54.54,0,0,1,.59.52,20.61,20.61,0,0,0-1.62,8.82c0,3.43.58,6,2.46,6,3,0,5.77-7.64,5.77-7.64s.26-.72.84-.72a.7.7,0,0,1,.78.72,4,4,0,0,1-.19.9s-3.44,10-7.91,10C272.36,350.18,271.13,345.18,271,344.73Z"/><path class="cls-25" d="M282.8,337.21A85.18,85.18,0,0,1,284,322.89a29.65,29.65,0,0,1-3.18-.33c-.84-.13-1.3-1.55-1.3-2a.31.31,0,0,1,.33-.32,25.35,25.35,0,0,0,4.6.32,24.74,24.74,0,0,1,2.66-7.52,4,4,0,0,1,2.66-1.81.65.65,0,0,1,.71.71c0,.46-1,3.37-1.82,8.49A20.93,20.93,0,0,0,295.5,319a.48.48,0,0,1,.52.52c0,1-1.36,2.65-3,3a23.69,23.69,0,0,1-4.67.39,106.66,106.66,0,0,0-.91,14.32c0,7.91,2.14,10.76,4.41,10.76,3.18,0,6.42-8.68,6.42-8.68s.26-.72.84-.72a.7.7,0,0,1,.78.72,3.83,3.83,0,0,1-.2.9s-3.95,11.28-9.27,11.28C286.68,351.47,282.8,347.39,282.8,337.21Z"/><path class="cls-25" d="M298,337.93c0-10.7,5.44-15.17,9.72-15.17,3.69,0,7.13,2.72,7.13,8.62,0,5.18-3.31,7.91-7.78,7.91a14.91,14.91,0,0,1-4.34-.59c.52,5.71,3.82,8.3,7.39,8.3,5.9,0,8.88-7.71,8.88-7.71s.26-.72.84-.72a.7.7,0,0,1,.78.72,3.83,3.83,0,0,1-.2.9s-3.5,9.86-11.34,9.86C303.6,350.05,298,346.09,298,337.93Zm4.66-1a10.85,10.85,0,0,0,3.24.39c3.05,0,4.8-2.92,4.8-6.81,0-3.56-1.49-5.51-2.79-5.51C305.74,325,302.76,329.05,302.69,336.89Z"/><path class="cls-25" d="M355.65,339.29s.26-.72.84-.72a.7.7,0,0,1,.78.72,4,4,0,0,1-.19.9s-3.76,11-9.53,11a5.3,5.3,0,0,1-5.25-5.38c0-6.94,3.37-10,3.37-14.91,0-1-.52-1.94-1.69-1.88-2,.07-4.92,3.31-6.28,7.45a41.37,41.37,0,0,0-1.49,12.64c0,.59-.26.91-.85.91-3.37,0-3-1.81-3-16.85,0-5.12,0-7.52-1.81-7.52-2.6,0-5.25,7.71-6.62,15.75a40.77,40.77,0,0,0-.64,7.2c0,1-1.3,1.42-1.95,1.42-1.1,0-2.66-4.86-2.66-12.12,0-9.4,1-12.83,4-12.83.52,0,.85.26.85.77,0,.85-.91,3.05-.91,13.62,1.29-7.52,3.5-16.79,9.14-16.79,3.56,0,4.92,3.3,4.92,8.1a22.43,22.43,0,0,1-.19,3.5c1-2.33,5-8.23,9.14-8.23,2.66,0,4,2,4,4.41,0,4.6-2.92,9.52-2.92,15.1A2.24,2.24,0,0,0,349,348C352.48,348,355.65,339.29,355.65,339.29Z"/><path class="cls-25" d="M368.61,344.73c-.06.32-1.55,6.48-5.89,6.48-3.5,0-7.39-3.63-7.39-10.43,0-12,6.8-17.63,12.51-17.63,3.24,0,5.77,2.14,5.77,5.25,0,1-1.75,1.94-2.53,1.94a.44.44,0,0,1-.46-.45c0-.46.13-.78.13-1.62a2.68,2.68,0,0,0-3-2.92c-3.37,0-7.65,4.86-7.65,15.43,0,4.86,1.56,7.78,3.57,7.78,2.4,0,3.89-5.9,4.54-9.79.51-3,.71-7.2,5.31-7.2a.53.53,0,0,1,.58.52,20.61,20.61,0,0,0-1.62,8.82c0,3.43.59,6,2.47,6,3,0,5.77-7.64,5.77-7.64s.26-.72.84-.72a.7.7,0,0,1,.78.72,3.83,3.83,0,0,1-.2.9s-3.43,10-7.91,10C370,350.18,368.74,345.18,368.61,344.73Z"/><path class="cls-25" d="M380.41,337.21a86.23,86.23,0,0,1,1.23-14.32,29.42,29.42,0,0,1-3.17-.33c-.85-.13-1.3-1.55-1.3-2a.3.3,0,0,1,.32-.32,25.55,25.55,0,0,0,4.61.32,25,25,0,0,1,2.65-7.52,4,4,0,0,1,2.66-1.81.65.65,0,0,1,.72.71c0,.46-1,3.37-1.82,8.49a20.93,20.93,0,0,0,6.81-1.42.47.47,0,0,1,.51.52c0,1-1.36,2.65-3,3a23.51,23.51,0,0,1-4.66.39,106.66,106.66,0,0,0-.91,14.32c0,7.91,2.14,10.76,4.41,10.76,3.17,0,6.41-8.68,6.41-8.68s.26-.72.85-.72a.7.7,0,0,1,.77.72,4,4,0,0,1-.19.9s-3.95,11.28-9.27,11.28C384.3,351.47,380.41,347.39,380.41,337.21Z"/><path class="cls-25" d="M397.78,325c.07-3,1.36-4.54,3.05-4.54a2.41,2.41,0,0,1,2.46,2.66,15.2,15.2,0,0,1-1.36,4.47c0,3.89,8.49,8.82,8.49,15.11a5.93,5.93,0,0,1-.19,1.55c3-1.16,4.28-4.92,4.28-4.92s.25-.72.84-.72a.7.7,0,0,1,.78.72,3.83,3.83,0,0,1-.2.9s-1.49,5-6.42,5.9a10.09,10.09,0,0,1-8.62,4.86c-3.3,0-6.93-1.75-6.93-4.73a3,3,0,0,1,3.17-2.92c2.27,0,5,.72,8.11,1a13.69,13.69,0,0,0,.13-1.55c0-5.58-4.41-10-5.38-12.38a56,56,0,0,1-2.66,9.78s-.26.72-.84.72a.7.7,0,0,1-.78-.72,4,4,0,0,1,.19-.9,67.21,67.21,0,0,0,2.47-9.92A21.49,21.49,0,0,1,397.78,325ZM404.72,346c-2.34-.26-4.41-.72-6-.72-1.17,0-1.75.65-1.75,1.43,0,1.23,1.62,2.4,3.5,2.4A4.63,4.63,0,0,0,404.72,346Z"/><path class="cls-25" d="M435.9,349.14c.32.26.64.39.64.71s-.32.65-1.16.65a6.94,6.94,0,0,1-6.74-6.87c-1.5,3.24-3.5,6.74-7.39,6.74-2.79,0-7.2-1.81-7.2-12.19s3.63-13.61,5.9-13.61a.73.73,0,0,1,.84.78c0,.84-2.27,3.7-2.27,14.26,0,6.94,2.6,8.17,4.22,8.17,2.59,0,5.83-6.87,5.83-10.37,0-11.41,2.72-15.3,5.7-15.3.52,0,.85.26.85.78,0,.84-1.62,4.15-1.62,15.1C433.5,346.55,434.27,347.84,435.9,349.14Z"/><path class="cls-25" d="M84.87,399.64a1.2,1.2,0,0,1,.37.76,19.38,19.38,0,0,1-.35,5.25c-.15.65-.52,1.65-.91,1.65-.55,0-.86-1.46-.77-1.92s.37-1.31.44-1.65a14.29,14.29,0,0,0,.28-3.19,5.31,5.31,0,0,1,.07-.81l-1.88.22a23.81,23.81,0,0,1-2.42.41A1.82,1.82,0,0,1,78.41,399c0-.26.39-.46,1.39-.61a50.88,50.88,0,0,1,8.41-.53,1.21,1.21,0,0,1,1,.9c0,.3-.26.5-.65.54C87.45,399.38,86.12,399.49,84.87,399.64Zm1.31-5.48c.42.24.9.89.76,1.22s-.43.26-.78.2c-.77-.13-1.55-.18-2.69-.26-.74-.05-1.46.11-1.92,0s-1.39-1.09-1.2-1.51,1.22-.35,1.68-.33A16.39,16.39,0,0,1,86.18,394.16Zm4-1.59c.85,0,1.81.61,1.81,1.15s-.11.51-.34.51a2.41,2.41,0,0,1-1-.33,3.26,3.26,0,0,0,0,1.11c.06.31,0,.85-.24,1s-.51,0-.74-.14-.68-.87-1.2-1.35c-.25-.24-.49-.55-.4-.79s.57-.26,1-.08a1.59,1.59,0,0,1,.68.39,3.18,3.18,0,0,1,0-1.33A.47.47,0,0,1,90.22,392.57Z"/><path class="cls-25" d="M99.14,397c0-1.2.06-2.27.07-2.66s.11-1.05.43-1.1,1,.55,1,1.16c0,.42,0,1.4,0,2.47,1.07-.07,2.2-.13,3.25-.18,0-.59.09-1.09.09-1.46s.06-1.24.37-1.29,1,.75,1.05,1.29c0,.37,0,.87,0,1.42a16.25,16.25,0,0,1,2.75.07c.54.11,1,.87.89,1.18s-.52.35-.89.37l-2.89.09a35.32,35.32,0,0,1-.63,4,14.1,14.1,0,0,1-1.39,3.69c-.44.79-.66,1-.92,1s-.75-1.17-.61-1.92a20.45,20.45,0,0,0,1.48-3.36,28.79,28.79,0,0,0,.55-3.32l-.85.05c-.77.06-1.53.12-2.19.19,0,1,0,1.82.07,2.23s0,1-.18,1c-.32.11-1-.36-1.24-1.24a10.55,10.55,0,0,1-.2-1.83,4,4,0,0,0-.52.08,13.76,13.76,0,0,1-2.16.35c-.42-.08-1.25-.85-1.25-1.35,0-.35.44-.52,2-.74C97.72,397.15,98.38,397.08,99.14,397Zm9.32-5.07c.81,0,1.8.55,1.8,1.2,0,.29-.09.46-.31.46a2.46,2.46,0,0,1-1-.34,3,3,0,0,0,0,1.11c0,.32,0,.85-.24,1s-.52,0-.74-.15-.68-.87-1.2-1.35c-.26-.24-.5-.55-.4-.79s.57-.26,1.05-.07a1.5,1.5,0,0,1,.68.38,3.19,3.19,0,0,1,0-1.33C108.12,392,108.27,392,108.46,392Z"/><path class="cls-25" d="M125,394.31a1.86,1.86,0,0,1-.15.77,11.52,11.52,0,0,1-2.46,2.53,1.28,1.28,0,0,1,.19.3,3.05,3.05,0,0,1,.15,1.42c0,1.6,0,5.7,0,6.38-.13.94-.24,1.12-.46,1.12-.41,0-1-.79-1-1.31,0-.31.1-1.64.1-2.28s0-3.08,0-4.65a31.77,31.77,0,0,1-3,2.36c-1,.7-2,1.29-2.32,1.14s-.22-.35-.22-.68a2.55,2.55,0,0,1,.33-1.33c.29-.31,1.29-.68,2-1.12a29.57,29.57,0,0,0,5.7-5c.26-.28.61-.65.87-.65S125,393.55,125,394.31Z"/><path class="cls-25" d="M138.36,396.1c.32.38.5,1.23.21,1.44s-.61,0-.8-.15c-.86-.52-2.25-1.11-2.69-1.51a1.82,1.82,0,0,1-.46-1.2c0-.17,0-.3.09-.35a.69.69,0,0,1,.43-.11,2.74,2.74,0,0,1,.94.2A5.53,5.53,0,0,1,138.36,396.1Zm.5,8.17a8.39,8.39,0,0,1-3.17,1.62.4.4,0,0,1-.17,0c-.49-.3-.14-1.92.13-2.29a19.64,19.64,0,0,1,2.16-1.14,18.09,18.09,0,0,0,5.5-4.88c.4-.51.85-.94,1.18-.9s.48.59.48,1.13a1.23,1.23,0,0,1-.07.44C144.51,399.18,141.13,402.54,138.86,404.27Z"/><path class="cls-25" d="M155.49,398.85a18.32,18.32,0,0,1-.33-4.41c0-.61,0-1.42.41-1.42s1,.75,1.11,1.38c.07.42,0,3.34.12,3.73s.47.72.83.44,1-.74,1.61-1.22a4.31,4.31,0,0,1,1.57-1c.31,0,.86.85.86,1.35a.46.46,0,0,1,0,.2c-.17.37-1,.67-1.86,1.18a11.88,11.88,0,0,0-2.75,2.11c-.69.75-1.57,1.95-1.42,2.43.27.94,2,1.11,3.32.92a11.54,11.54,0,0,1,1.38-.27c.35.05,1.2,1,.94,1.42s-1.75.66-3,.66a4.34,4.34,0,0,1-3.14-1,3.76,3.76,0,0,1-1-2.2,7.23,7.23,0,0,1,2.2-3.39C155.92,399.77,155.59,399.14,155.49,398.85Z"/><path class="cls-25" d="M180.24,406.17a1.7,1.7,0,0,1,0,.26c-.15.4-.69.39-1.06.39-1.05,0-3.17.07-3.74.12a11.22,11.22,0,0,1-1.31.12.94.94,0,0,1-.22,0,1.49,1.49,0,0,1-1-1.07c0-.24.15-.46.61-.56.72-.13,1.49-.18,1.88-.27s.43-.26.43-.72c0-2,.22-7.81.25-8.69-.61,0-1.75.24-2.19.18a1.29,1.29,0,0,1-.89-1.05c0-.29.37-.53.91-.63a29.17,29.17,0,0,1,3.74-.2c.37,0,.68,0,.87,0a1,1,0,0,1,.92,1c-.05.35-.33.48-.92.53-.78.08-.87.3-.89.94,0,.93-.2,5.93-.2,8.66.66,0,1.33,0,2,0A1,1,0,0,1,180.24,406.17Z"/><path class="cls-25" d="M187.21,407.07c-.52,0-.92-1.1-1-1.58s.25-7.64.25-9.76c-.88,0-3.15.33-3.48.24a1.64,1.64,0,0,1-1.05-1.18c0-.33.42-.48,1.07-.57.86-.12,2.45-.17,3.67-.21.81,0,1.73,0,2.52,0a11.07,11.07,0,0,1,1.78.07,1.26,1.26,0,0,1,1,1c0,.31-.22.46-1.12.5-.63,0-1.53.05-2.18.11a.55.55,0,0,0-.57.55c-.07,1.51-.15,9-.17,9.3C187.84,406.54,187.53,407.07,187.21,407.07Z"/><path class="cls-25" d="M201.37,395a50.16,50.16,0,0,1,8.16-1,6.52,6.52,0,0,1,.86.05c.91.15,1.76,1.08,1.55,1.54s-1.6,1.25-2.69,2.45a6.18,6.18,0,0,0-1.88,3.54,5.11,5.11,0,0,0,1.44,2.95,1.31,1.31,0,0,1,.18.78c0,.81-.16,1.29-.44,1.29-.46,0-1.37-1-1.77-1.75a6.8,6.8,0,0,1-.83-4.49,7.64,7.64,0,0,1,1.62-2.91c1-1.25,2.12-1.81,2-1.94a26.2,26.2,0,0,0-5.5.76,21.67,21.67,0,0,1-2.56.66c-.61,0-1.57-.77-1.57-1.23C200,395.45,200.71,395.18,201.37,395Zm12.23,1.73a2.29,2.29,0,0,1,1.11.65,1,1,0,0,1,.17.53.43.43,0,0,1-.13.35c-.17.13-.52,0-.67,0l-.57-.24a3.18,3.18,0,0,0,0,1.1c.06.32,0,.85-.24,1s-.51,0-.74-.15-.68-.87-1.2-1.35c-.25-.24-.49-.55-.4-.79s.57-.26,1-.07a1.71,1.71,0,0,1,.68.38,3.14,3.14,0,0,1,0-1.32C212.79,396.63,213.22,396.67,213.6,396.76Z"/><path class="cls-25" d="M220,407.79c-.48,0-1-.7-1.24-1a14,14,0,0,0-1.64-1.66,1,1,0,0,1-.29-.65c0-.28.14-.44.57-.44a2.33,2.33,0,0,1,.7.11A5.3,5.3,0,0,1,220.5,406a1.43,1.43,0,0,1,.18.72C220.68,407.31,220.35,407.79,220,407.79Z"/><path class="cls-25" d="M241.78,406.83a3.27,3.27,0,0,1-1.79-1.25,3,3,0,0,1-.78-1.77,1.77,1.77,0,0,1,1-1.59,6.73,6.73,0,0,1,1.75-.31c0-1.16,0-2.75-.05-3.89-.13-.34-.91-.87-.83-1.26s.44-.39.83-.48c0-1-.08-1.69-.11-2.45-.08-1.2,0-1.31.25-1.31s.93.61,1.15,1.38a11.08,11.08,0,0,1,.07,2.18l.67-.06A15.13,15.13,0,0,1,247,396a1.71,1.71,0,0,1,.92,1.24c0,.36-.35.42-1.59.46l-3.1.16c0,.41,0,.8,0,1.2,0,1.11,0,2.05,0,2.86a8.47,8.47,0,0,1,3.61.7c.41.28.85,1.31.67,1.66s-.79.21-1.29,0a9.54,9.54,0,0,0-3-.75,10.23,10.23,0,0,1-.11,1.82C243,406.17,242.39,406.83,241.78,406.83Zm-.22-1.55c.24-.07.29-.79.35-1.73-.7.09-1,.28-1.13.44S241.24,405.36,241.56,405.28Z"/><path class="cls-25" d="M259.3,392.91c.4,0,.88.94.88,1.66,0,.4-.24,1.36-.31,1.93a9.53,9.53,0,0,0-.06,2.86c.17,0,.33-.4.52-.4.39,0,.83,1,.68,1.55a2.45,2.45,0,0,1-1.42,1.2c-.59,0-1.27-1.83-1.27-3.93C258.32,395.84,258.71,392.91,259.3,392.91Zm5.33,2.27a11.86,11.86,0,0,1,.22,2.69,28.83,28.83,0,0,1-1.39,7.8c-.33.92-.84,2-1.25,2s-.63-1.29-.55-2c0-.44.79-1.71,1.09-3.21a21.37,21.37,0,0,0,.44-7.21c-.06-.48,0-1.24.24-1.31S264.42,394.47,264.63,395.18Z"/><path class="cls-25" d="M278.66,406.83a3.27,3.27,0,0,1-1.79-1.25,3,3,0,0,1-.78-1.77,1.77,1.77,0,0,1,1-1.59,6.73,6.73,0,0,1,1.75-.31c0-1.16,0-2.75,0-3.89-.13-.34-.91-.87-.83-1.26s.44-.39.83-.48c0-1-.08-1.69-.11-2.45-.08-1.2,0-1.31.26-1.31s.92.61,1.14,1.38a11.08,11.08,0,0,1,.07,2.18l.67-.06a15.13,15.13,0,0,1,3.08-.07,1.71,1.71,0,0,1,.92,1.24c0,.36-.35.42-1.59.46l-3.1.16c0,.41,0,.8,0,1.2,0,1.11,0,2.05,0,2.86a8.56,8.56,0,0,1,3.62.7c.4.28.84,1.31.66,1.66s-.79.21-1.29,0a9.54,9.54,0,0,0-3-.75,10.23,10.23,0,0,1-.11,1.82C279.89,406.17,279.27,406.83,278.66,406.83Zm-.22-1.55c.24-.07.29-.79.35-1.73-.7.09-1,.28-1.13.44S278.12,405.36,278.44,405.28Z"/><path class="cls-25" d="M295.81,404.69c-.65,0-1.42-.73-2-1.8a22.77,22.77,0,0,1-1.45-4.78,5.44,5.44,0,0,1-.13-1.13c0-.38.13-.48.31-.48a1.76,1.76,0,0,1,1.11.76c.18.33.66,2.62,1,3.69.28.89.65,1.57.85,1.59.35,0,1-1,1.27-.89a1.63,1.63,0,0,1,.72,1.57A2.84,2.84,0,0,1,295.81,404.69Zm6-6.75c-.24-.37-.4-.85-.2-1s.89-.06,1.53.57a6.15,6.15,0,0,1,1.5,2.38,3.77,3.77,0,0,1,.14,1c0,.36-.07.68-.23.75a1.45,1.45,0,0,1-1.33-.57,5.1,5.1,0,0,1-.54-1.14A8.16,8.16,0,0,0,301.78,397.94Z"/><path class="cls-25" d="M319,396c0-.18.41-.51.69-1a.54.54,0,0,1-.41.08,1.44,1.44,0,0,1-.81-1.24,1.67,1.67,0,0,1,1.58-1.31c.58,0,1.18.5,1.18,1.75a4,4,0,0,1-.84,2c-.19.3-.72,1-.94,1C319.1,397.37,319,396.36,319,396Zm3.56,0c0-.2.41-.51.69-1a.71.71,0,0,1-.41.09,1.43,1.43,0,0,1-.79-1.37,1.7,1.7,0,0,1,1.55-1.18c.57,0,1.2.5,1.2,1.75a4,4,0,0,1-.85,2c-.19.3-.72,1-.94,1S322.51,396.36,322.58,396Z"/><path class="cls-25" d="M332,395c.06.74.26,10.22.26,10.76s0,1.09-.33,1.09-.83-.67-.91-1.19c-.2-1.51-.33-8.74-.33-10.4,0-.66.06-1.29.3-1.35S332,394.29,332,395Zm1.48,3.82a11.72,11.72,0,0,1,3.67-.53c.83.16,1.86,1.27,1.68,2S336,403.81,336,404s1.73-.29,2.31-.18a1.22,1.22,0,0,1,.72.55c.07-1.59.64-8.69.51-8.82a12,12,0,0,0-3.45.28,10.31,10.31,0,0,1-2.25.48,2.18,2.18,0,0,1-1.31-1.37c0-.27.52-.55,1.18-.72a25.5,25.5,0,0,1,4.74-.51,7.15,7.15,0,0,1,.91,0,2.48,2.48,0,0,1,1.6,1.5,2.21,2.21,0,0,1,.17.9c0,1.74-.48,7.21-.65,8.41-.11.78-.29,1.44-.51,1.46a.84.84,0,0,1-.71-.5,1.7,1.7,0,0,1-.94.26c-.42,0-1.42.09-1.82.13-1.11.09-2.11.44-2.47.39-.56-.1-1.37-1.07-1.26-1.55.07-.33,1-.63,1.26-.83.59-.43,3.32-3.64,3.19-3.84s-.8,0-1.44.17a17.38,17.38,0,0,1-1.87.55,1.74,1.74,0,0,1-1.34-1.22C332.56,399.29,333.11,398.92,333.52,398.79Z"/><path class="cls-25" d="M349.32,395.14c.07.55.22,2.43.28,3.15,0,.56,0,.89-.26,1s-.92-.42-1.15-1.22a17.48,17.48,0,0,1-.29-3.13c0-.5.2-1,.46-1S349.25,394.57,349.32,395.14Zm1.51,7.93c0,1,.13,2.75.21,3.45s0,1-.24,1c-.41,0-1.06-.81-1.11-1.33a24.07,24.07,0,0,1-.22-3.14c0-.35.09-1.05.39-1.05A1.37,1.37,0,0,1,350.83,403.07Zm1.66-9.35a1.27,1.27,0,0,1,.13.61c.37-.06.76-.1,1.16-.13a10.73,10.73,0,0,1-.14-1.94c0-.83.18-1.05.37-1.05a1.38,1.38,0,0,1,.92.9c0,.45,0,1.31,0,2,.35,0,.7-.08,1-.1a6.81,6.81,0,0,0,.82-1.07c.53-.77.84-1.23,1.1-1.21s1,1,.87,1.33a5.13,5.13,0,0,1-.9,1,7.12,7.12,0,0,1,1.62,0,2.08,2.08,0,0,1,1.35,1.33c0,.75-.59,2.32-1,2.45s-1.2-.72-1.26-1.07.69-1.11.56-1.25-.17-.09-.65-.09a40.66,40.66,0,0,0-6.82.68,5.26,5.26,0,0,1-1,.15c-.46,0-1.09-.83-1.09-1.09s.32-.46,1.13-.59c.14,0,.31-.06.51-.08a3.59,3.59,0,0,1-.61-1.16c-.16-.46-.25-.9-.05-1C351,392.06,352.09,392.89,352.49,393.72Zm-.64,8.89c.27-.07,1-.2,1.77-.33v-.22a4.8,4.8,0,0,1,.05-.67h-.05c-.37-.07-.91-.75-.78-1.12.08-.22,1-.34,1.46-.59s1.62-1.52,1.53-1.65a6.31,6.31,0,0,0-3.19.85c0,.65,0,1.42,0,1.85s-.06.68-.21.74-.66-.39-.83-.87a17.52,17.52,0,0,1-.22-3.16c0-.4,0-1,.19-1a.93.93,0,0,1,.9.76,8.52,8.52,0,0,1,3.4-.67c.72.17,1.43.94,1.31,1.46s-1,1.44-1,1.51.2,0,.35,0,.59.74.4,1-1,.28-1.68.41l-.72.22a1.07,1.07,0,0,1,.28.67v.27a14.88,14.88,0,0,1,2.62-.16,2.1,2.1,0,0,1,1.4,1.55,10.7,10.7,0,0,1-.2,1.66c-.18.86-.55,2-.92,2s-.89-1.24-.81-1.62.25-.71.36-1.07a2.05,2.05,0,0,0,.12-1.13,8.51,8.51,0,0,0-2.57.22c0,1.33,0,3.06,0,4.08,0,.77-.14,1.23-.38,1.23a1.16,1.16,0,0,1-.85-1c-.06-.9,0-2.6,0-4a6.09,6.09,0,0,1-1.4.39c-.41,0-1.26-.63-1.26-.94S351.35,402.74,351.85,402.61Z"/><path class="cls-25" d="M365.45,396c0-.18.41-.51.69-1a.54.54,0,0,1-.41.08,1.44,1.44,0,0,1-.81-1.24,1.67,1.67,0,0,1,1.59-1.31c.57,0,1.18.5,1.18,1.75a4,4,0,0,1-.85,2c-.19.3-.72,1-.94,1S365.38,396.36,365.45,396Zm3.57,0c0-.2.4-.51.68-1a.71.71,0,0,1-.41.09,1.43,1.43,0,0,1-.79-1.37,1.7,1.7,0,0,1,1.55-1.18c.57,0,1.2.5,1.2,1.75a4,4,0,0,1-.85,2c-.19.3-.72,1-.94,1S368.94,396.36,369,396Z"/><path class="cls-25" d="M388.62,400.89a1.94,1.94,0,0,1-.65-1.69,10.41,10.41,0,0,1,1.35-2.68,2.91,2.91,0,0,1-1.05.17,1.67,1.67,0,0,1-1-1.31c0-.32.31-.41,1.47-.48.45,0,1-.08,1.54-.15.77-1.33,1.21-1.62,1.71-1.62s1.25,1.82,1,2.25a3.89,3.89,0,0,1-2,.83c-.18.29-.39.64-.55,1a7.58,7.58,0,0,0-1,2.1c.2.5,1.61,1,1.9,1a4.3,4.3,0,0,0,1.05-.7c.32-.24.8-.59,1.28-.89s1-.62,1.34-.53c.19.05.37.61.37,1.2s-.11.75-1.51,1.38a.9.9,0,0,0-.48.46c-.2.44-.2,1.28-.48,1.39a2.66,2.66,0,0,1-1.4-.21c-.63.69-1.26,1.7-1.07,2.09.24.55.86.62,1.6.61s1.39-.24,1.7-.23,1.07,1,.92,1.33-1.42.61-2.25.61A4.87,4.87,0,0,1,390,406a2.46,2.46,0,0,1-.89-2.09,6.47,6.47,0,0,1,1.09-2.14A7.58,7.58,0,0,1,388.62,400.89Z"/></svg>